<?xml version="1.0" encoding="utf-8"?>
<!-- Generator: Adobe Illustrator 22.0.0, SVG Export Plug-In . SVG Version: 6.00 Build 0)  -->
<svg version="1.1" id="Layer_1" xmlns="http://www.w3.org/2000/svg" xmlns:xlink="http://www.w3.org/1999/xlink" x="0px" y="0px"
	 viewBox="0 0 512 512" style="enable-background:new 0 0 512 512;" xml:space="preserve">
<style type="text/css">
	.st0{fill:url(#SVGID_1_);}
	.st1{fill:url(#SVGID_2_);}
</style>
<g>
	<g>
		<linearGradient id="SVGID_1_" gradientUnits="userSpaceOnUse" x1="428.467" y1="511.0515" x2="83.4538" y2="26.5189">
			<stop  offset="0" style="stop-color:#18DCFF"/>
			<stop  offset="1" style="stop-color:#008CFF"/>
		</linearGradient>
		<path class="st0" d="M494.6,82.3l-48.9-13.1v-5.4c0-6.7-5.4-12.1-12.1-12.1h-53.3L188.7,0.4c-5.5-1.5-11.1,1.8-12.6,7.2
			l-11.8,44.1H61c-6.7,0-12.1,5.4-12.1,12.1v317.3v67.5v51.4c0,6.7,5.4,12.1,12.1,12.1h372.7c6.7,0,12.1-5.4,12.1-12.1v-51.4v-67.5
			v-76.7l56.1-209.4C503.3,89.4,500.1,83.8,494.6,82.3z M195.8,31.9c0.5-1.8,2.3-2.8,4.1-2.4l82.8,22.2h-92.2L195.8,31.9z
			 M416,414.8c0,2.2-1.8,3.9-3.9,3.9H82.7c-2.2,0-3.9-1.8-3.9-3.9V85.4c0-2.2,1.8-3.9,3.9-3.9h329.4c2.2,0,3.9,1.8,3.9,3.9V414.8z
			 M472.7,106.1l-26.9,100.5V95.4l24.6,6.6C472.1,102.5,473.2,104.3,472.7,106.1z"/>
	</g>
	<g>
		<g>
			<linearGradient id="SVGID_2_" gradientUnits="userSpaceOnUse" x1="438.699" y1="503.7658" x2="93.6859" y2="19.2332">
				<stop  offset="0" style="stop-color:#18DCFF"/>
				<stop  offset="1" style="stop-color:#008CFF"/>
			</linearGradient>
			<path class="st1" d="M279.4,389h-1.3c-8.6-0.9-14.2-5.4-16.6-13.6c-1.4-5-2.2-10.7-2.2-17c0-4.2,0.3-8.6,0.9-13.4
				c-13.5,7.9-28.2,11.9-44,11.9c-17.7,0-31.7-4.5-42.1-13.4c-16.5-14.1-24.8-35.5-24.8-64.3c0-5.7,0.7-14.5,2-26.3
				c1.4-11.8,5.7-26.3,12.9-43.6c7.3-17.3,16.8-33.1,28.7-47.4c11.9-14.4,25.6-26,41.3-34.9c15.7-8.9,32.9-13.4,51.8-13.4
				c12.2,0,22.4,3.1,30.6,9.2c8.2,6.1,14.2,13.8,18.1,23c3.5,8.1,5.2,16.4,5.2,25c0,1.3-0.2,4.8-0.5,10.5c-0.4,5.7-3.1,12.7-8.3,21
				c-7,9.9-15.7,15.7-25.9,17.3c-3,0.4-5.9,0.6-8.6,0.6c-6.9,0-13.9-1.6-21.1-5c-7.2-3.3-11.6-8.1-13.4-14.2
				c5.3-0.4,11.8-4,19.4-10.7c7.6-6.7,14.6-14.4,20.9-23.2c6.3-8.8,10.1-16.5,11.2-23.1l0.2-2.4c0-4.9-3.5-7.3-10.4-7.3
				c-9.2,0.9-21.6,8-37.2,21.4c-15.6,13.4-28.7,30.2-39.4,50.5c-7.6,15.4-13.4,30.4-17.5,45.1c-3.9,14.1-5.8,26.8-5.8,38.2v9.9
				c0,6,2.3,12.6,6.9,19.6c4.6,7,11.8,10.6,21.6,10.6c12.5,0,22.4-5.2,29.8-15.7c4.9-6.9,9.1-16.2,12.7-27.8
				c1.7-5.5,3.3-9.2,4.7-11.2c-5.9-1-11.4-2.1-16.6-3.2c-10.1-2.4-18.5-3.7-25.4-3.7c-6.9,0.1-12.1,3.2-15.5,9.3
				c-0.4-1.2-0.6-2.4-0.6-3.7c0-1.9,0.5-4.5,1.4-7.8c0.9-3.3,2.7-6.9,5.2-10.8c2.5-3.9,5.5-6.6,9-8.2c8.3-3.2,16.3-4.9,23.9-5.2
				l5.8-0.2c5.7,0,11.9,0.4,18.3,1.1c7,0.9,15.2,1.3,24.6,1.3c6.9,0,14.4-0.2,22.4-0.6c-3,4.3-8.1,14.7-15.1,31.2
				c-7,16.5-13.7,33.7-19.8,51.7c-6.9,20.4-10.4,34.8-10.4,43.1c0,7.8,2.6,12.9,7.8,15.5C288.7,387.5,283.7,389,279.4,389z"/>
		</g>
	</g>
</g>
</svg>
