<svg id="Layer_1" data-name="Layer 1" xmlns="http://www.w3.org/2000/svg" viewBox="0 0 186.43 353.81"><defs><style>.cls-1,.cls-37{fill:#ababab;}.cls-2{fill:#9b9b9b;}.cls-3{fill:#919292;}.cls-4{fill:#9c9c9c;}.cls-10,.cls-11,.cls-14,.cls-15,.cls-16,.cls-17,.cls-18,.cls-19,.cls-20,.cls-21,.cls-22,.cls-23,.cls-24,.cls-25,.cls-38,.cls-5{fill:none;}.cls-5{stroke:#ed1c24;}.cls-10,.cls-11,.cls-14,.cls-15,.cls-16,.cls-17,.cls-18,.cls-19,.cls-20,.cls-21,.cls-22,.cls-23,.cls-24,.cls-25,.cls-27,.cls-37,.cls-38,.cls-5{stroke-miterlimit:10;}.cls-10,.cls-5{stroke-width:0.25px;}.cls-6{fill:#d7d6d6;}.cls-7{fill:#a2a1a1;}.cls-8{fill:#6c6d6d;}.cls-9{fill:#6a6b6b;}.cls-10{stroke:#d74752;}.cls-11{stroke:#ceb0d4;}.cls-12{opacity:0.78;}.cls-13{fill:#555;}.cls-14{stroke:#cacaca;}.cls-15{stroke:#dfdfde;}.cls-16{stroke:#cecece;}.cls-17{stroke:#afafb0;}.cls-18{stroke:#d2d2d2;}.cls-19{stroke:#9e9e9e;}.cls-20{stroke:#d3d3d3;}.cls-21{stroke:#cfcecc;}.cls-22{stroke:#818182;}.cls-23{stroke:#c3c3c3;}.cls-24{stroke:#c9c9c9;}.cls-25{stroke:#cecdcd;}.cls-26{fill:#aeaeae;}.cls-27{fill:#cbcbca;stroke:#cbcbca;}.cls-28{fill:#676767;}.cls-29{fill:#929292;}.cls-30{fill:#969696;}.cls-31{fill:#828383;}.cls-32{fill:#919190;}.cls-33{fill:#323232;}.cls-34{fill:#343434;}.cls-35{fill:#1d1d1d;}.cls-36{fill:#979696;}.cls-37{stroke:#ababab;}.cls-38{stroke:#d4d4d4;}.cls-39{fill:#bababb;}.cls-40{fill:#8d8d8d;}.cls-41{fill:#464646;}.cls-42{fill:#cecdcd;}.cls-43{fill:#c0bfbf;}.cls-44{fill:#232323;}.cls-45{fill:#2c2c2c;}.cls-46{fill:#242424;}.cls-47{fill:#262626;}.cls-48{fill:#393939;}.cls-49{fill:#0f0f10;}.cls-50{fill:#353535;}.cls-51{fill:#3a3a3a;}.cls-52{fill:#ed1c24;}</style></defs><title>logosmall</title><polyline class="cls-1" points="152.4 115.03 152.94 115.29 155.86 132.17 158.48 147.33 161.4 164.21 165.01 185.14 169.4 210.53 174.13 237.83 173.56 238.64 162.84 238.79 137.34 238.4 104.04 237.09 100.23 236.33 80.54 122.43 81.07 123.05 83.06 122.7 112.39 119.89 129.27 117.75 138.58 116.85 149.92 115.39 152.04 115.02"/><polygon class="cls-2" points="151.52 116.1 152.6 115.91 154.97 129.58 157.87 146.68 159.68 156.86 162.59 173.69 164.59 185.21 166.44 195.97 167.74 203.43 169.32 212.59 164.2 189.41 160.34 167.08 157.09 148.29 155.02 134.77 153.09 123.33 151.52 116.1"/><path class="cls-3" d="M255.92,154.3l3.42,16.4,2.39,14.43s5.24,12.56,6.16,6.51l-.58-5.78-5.6-32.37S260.34,152.28,255.92,154.3Z" transform="translate(-110.62 -37.13)"/><path class="cls-4" d="M198.89,160.28s-4.17-1.85-2.63,4.34,13.87,21.27,13.87,21.27l24.07,16.61,17.46,13.94,20.95,28s6.48,13.24,5.47,1S269,195.64,269,195.64l-6.86-42.42Z" transform="translate(-110.62 -37.13)"/><line class="cls-5" x1="182.23" y1="222.58" x2="162.93" y2="112.57"/><polygon class="cls-6" points="173.08 231.8 175.36 231.9 182.32 223.13 163.68 111.59 162.71 111.34 124.04 117.35 118.15 118.26 152.34 114.4 152.85 114.81 173.08 231.8"/><polygon class="cls-7" points="123.76 115.31 166.31 108.45 166.96 108.09 186.43 222.35 185.86 222.73 182.32 223.13 163.59 111.11 162.8 111.04 124.04 117.35 123.76 115.31"/><polygon class="cls-8" points="81.37 122.64 81.84 122.21 82.81 121.69 85.67 120.2 88.75 120.03 165.9 107.68 166.5 107.92 166.31 108.45 123.63 114.98 123.96 116.91 118.09 117.92 118.15 118.26 152.34 114.4 151.85 114.77 146.4 115.47 141.66 116.07 136.88 116.61 127.99 117.73 119.85 118.64 111.61 119.64 90.87 121.67 84.38 122.37 81.37 122.64"/><polygon class="cls-9" points="182.85 222.48 184.93 221.66 166.84 109.85 166.04 109.31 125.36 115.59 125.49 116.32 163.47 110.43 164.44 112.31 182.85 222.48"/><polygon class="cls-10" points="155.02 115.49 152.94 115.29 174.94 230.7 176.18 231.75 155.02 115.49"/><polygon class="cls-10" points="158.85 114.32 180.85 225.65 179.51 225.88 157.82 114.5 158.85 114.32"/><polygon class="cls-10" points="161.35 112.84 181.88 224.24 159.5 113.17 161.35 112.84"/><polyline class="cls-10" points="156.22 116.28 177.5 228.35 178.33 227.85 156.81 115.18"/><line class="cls-10" x1="176.69" y1="229.76" x2="155.5" y2="115.41"/><path class="cls-11" d="M256,123.44" transform="translate(-110.62 -37.13)"/><g class="cls-12"><path class="cls-13" d="M150.21,180.17c-17.42,32.81-22.54,77.14-2.08,87.47s43.39-13,58.91-43.73,21.06-75.95.6-86.28S166.36,149.77,150.21,180.17Z" transform="translate(-110.62 -37.13)"/><ellipse class="cls-14" cx="183.06" cy="159.08" rx="18.8" ry="9.1" transform="translate(-150.23 218.06) rotate(-64.34)"/><ellipse class="cls-15" cx="200.8" cy="173.02" rx="21.08" ry="11.65" transform="translate(-152.74 241.95) rotate(-64.34)"/><ellipse class="cls-16" cx="189.78" cy="218.49" rx="23.05" ry="13.07" transform="translate(-199.97 257.8) rotate(-64.34)"/><ellipse class="cls-17" cx="160.72" cy="241.85" rx="22.43" ry="10.34" transform="translate(-228.88 285.31) rotate(-72.51)"/><ellipse class="cls-18" cx="159.34" cy="182.82" rx="17.65" ry="7.63" transform="translate(-185.08 210.14) rotate(-64.34)"/><ellipse class="cls-19" cx="148.22" cy="220.42" rx="18.73" ry="8.58" transform="translate(-217.18 258.4) rotate(-72.51)"/><ellipse class="cls-20" cx="175.48" cy="185.25" rx="4.56" ry="2.47" transform="translate(-172.79 241.05) rotate(-67.91)"/><ellipse class="cls-18" cx="180.74" cy="190.72" rx="4.56" ry="2.47" transform="translate(-174.57 249.34) rotate(-67.91)"/><ellipse class="cls-21" cx="177.18" cy="204.5" rx="4.56" ry="2.47" transform="translate(-189.57 254.63) rotate(-67.91)"/><ellipse class="cls-22" cx="168.52" cy="211.88" rx="4.56" ry="2.47" transform="translate(-201.8 251.21) rotate(-67.91)"/><ellipse class="cls-23" cx="164.1" cy="206.15" rx="4.56" ry="2.47" transform="translate(-199.26 243.55) rotate(-67.91)"/><ellipse class="cls-24" cx="167.14" cy="192.82" rx="4.56" ry="2.47" transform="translate(-185.01 238.04) rotate(-67.91)"/><ellipse class="cls-25" cx="172.51" cy="198.1" rx="7.82" ry="4.23" transform="translate(-186.55 246.31) rotate(-67.91)"/><path class="cls-26" d="M197.1,137.6s-2.74-.6-7.32,1.49,15.35-5.5,21.45,6.69C211.23,145.78,210.79,135.91,197.1,137.6Z" transform="translate(-110.62 -37.13)"/><path class="cls-27" d="M217,172.41l-12.5,22,2.08,20.23S220.6,183,217,172.41Z" transform="translate(-110.62 -37.13)"/><path class="cls-28" d="M172,262s-6.53,3.27-9.66,3.42-7.59,3.12-16.51-3.42c0,0-6.55-7.59-7.44-14.58,0,0-.45,6.55,3.57,11.31a47.49,47.49,0,0,0,7.88,7.5l7.14,1,8.78-1.49Z" transform="translate(-110.62 -37.13)"/><path class="cls-13" d="M137.3,233.84v8L136,239.64s0-12.2,1.34-17.26Z" transform="translate(-110.62 -37.13)"/><path class="cls-29" d="M184.46,250.8s-5.4,6.4-7.91,7.29l2.51-.89,8.82-7.74,3.42-5.06Z" transform="translate(-110.62 -37.13)"/><path class="cls-30" d="M154.62,201.84a6.55,6.55,0,0,1,4.14,3.4,4.73,4.73,0,0,1,.17.48s1.06-.55-1-3.12S154.62,201.84,154.62,201.84Z" transform="translate(-110.62 -37.13)"/><path class="cls-31" d="M214.62,157s1.6-.89-1.6-3.53-5.65-1.56-5.65-1.56l1.26.63S214,155.38,214.62,157Z" transform="translate(-110.62 -37.13)"/><path class="cls-32" d="M167.35,155.91s-3.24,3.35-3.9,5c0,0,6-7,6.53-7.36s4.24-4.41,6.58-6.25,10.15-6.53,10.15-6.53a7.14,7.14,0,0,0-2.29.8c-1.39.71-10.38,6.62-11.44,8.35l-3.24,3.12Z" transform="translate(-110.62 -37.13)"/><path class="cls-33" d="M167.14,167.63s-3.58-1-9.83,8.09c0,0-3.4,5.51-4.24,9.53s-2,8.08-1.12,10.94,1.39,2.57,1.39,2.57-3,.28-3.35-4a36.15,36.15,0,0,1,0-6.81s1.67-6.69,3.51-9.32a35.71,35.71,0,0,1,3.29-5.63,19,19,0,0,1,4.41-4.41S164.58,165.9,167.14,167.63Z" transform="translate(-110.62 -37.13)"/><path class="cls-34" d="M141.86,236.52s-3-6.14,1.28-18c0,0,3.46-8.53,6.25-10.71,0,0,3.63-4.24,6-3.85,0,0-1.66-2.74-7.13,1.78S139.29,223,139.29,223s-1.39,8.2,0,10.82a5.43,5.43,0,0,0,3.79,4.3A6,6,0,0,1,141.86,236.52Z" transform="translate(-110.62 -37.13)"/><path class="cls-35" d="M155.91,233.56s-6,12.66-4.46,21.7c0,0,.89,6.25,5,7.25a4.63,4.63,0,0,1-5.69-3.24,27.37,27.37,0,0,1-1.45-6.75s-.61-7.47.95-10.38c0,0,.84-5.47,3.29-8.59,0,0,2-5,3.57-6.14,0,0,2.73-4,4.8-4.41,0,0,3.63-3.11,7.08-.63l1.56,1.52-1.73-1.17s-6-.28-7.64,3.35C161.21,226.09,155.86,232.11,155.91,233.56Z" transform="translate(-110.62 -37.13)"/><path class="cls-36" d="M138.33,239.64s3.58,4.83,10.58-1.56c0,0-4.09,13,0,21.94,0,0,2.83,7.74,9.67,4.54L156,265.68s-13.57.6-17.72-20.68Z" transform="translate(-110.62 -37.13)"/><path class="cls-37" d="M175.48,236.22s.64,9.85,12.1,5.82-2.38,6.08-2.38,6.08-9.07,10.26-16.51,12.5-10.19,3.12-10.19,3.12S177.06,255,175.48,236.22Z" transform="translate(-110.62 -37.13)"/><path class="cls-38" d="M171.51,175.09s3.08,6.77,11.54.3l4.08-4.17,2.65-3.57" transform="translate(-110.62 -37.13)"/><path class="cls-39" d="M165.56,164.52s-4,1-4.17,2.53c0,0,3-2,4.69-1.27,0,0,2.42.33,3,1.86a7.65,7.65,0,0,0,1,1.93,9.53,9.53,0,0,0-.19-1.67C169.8,167.42,167.91,164.64,165.56,164.52Z" transform="translate(-110.62 -37.13)"/><path class="cls-40" d="M168.63,219.56h-2l2.45,1s2.45,1.86,2.87,3.76,1,2.06,1,2.06a16.83,16.83,0,0,0-.73-3.12A18.89,18.89,0,0,0,168.63,219.56Z" transform="translate(-110.62 -37.13)"/><path class="cls-41" d="M158.34,219.26a26.83,26.83,0,0,1-1.06,3.57c-.39.73.17.17.17.17l1.73-6.5.33-2.48s.39-4.83,0-6.11-.11.75-.11.75v2l-.14,2.82-.45,3.6Z" transform="translate(-110.62 -37.13)"/><path class="cls-42" d="M149.5,199.37l1.56,2.12v.39h2.29l.84-.65S150.28,200.88,149.5,199.37Z" transform="translate(-110.62 -37.13)"/><path class="cls-43" d="M185.59,187.1s.73,9.32,9,7.42c0,0,7-1.92,9.2-5.19s2.62-3,2.62-3l-2.84,3.85-3.29,2.57L198,194a32,32,0,0,1-4.46,1.12,11.5,11.5,0,0,1-4.24-.73c-.95-.56-3.12-3.63-3.12-3.63Z" transform="translate(-110.62 -37.13)"/><polygon class="cls-44" points="104.7 120.96 104.24 120.31 104.07 120.49 104.16 121.25 104.58 123.3 104.7 125.09 104.6 127.13 104.58 128.66 104.21 131.24 103.71 133.64 103.43 134.36 102.87 136.4 102.36 137.67 101.92 138.78 100.96 141.11 100.22 142.45 99.75 143.48 103.18 136.64 104.35 132.44 105.16 128.09 105.16 124.94 104.91 122.9 104.7 120.96"/><path class="cls-45" d="M210.37,154.82s-5.54-1.08-12.08,6.36-8,13.61-8,13.61-1.6,6.88-1.15,9,.28,4.42,1.6,6.4,1.41,1.82,1.41,1.82a8,8,0,0,1-4.65-6.43,44.43,44.43,0,0,1-.19-7.1s1.23-4.6,1.67-5.59,1.93-4.67,1.93-4.67,2.68-5.21,3.16-5.54,4.39-5,4.39-5l3-2.16,3.68-1.64S209,153.37,210.37,154.82Z" transform="translate(-110.62 -37.13)"/><path class="cls-46" d="M175.88,175.77s-2.4-2-1.73-7.87,2.29-8.59,2.29-8.59l3.51-6.75,4.3-5.3s5.47-4.57,6.81-4.13.78,0,.78,0-1.12-1.36-3.63-.64-6,3.85-6,3.85-3.29,3.35-3.63,4.24a39.22,39.22,0,0,1-2.34,3.9L174,159.37l-1.39,3.85-.67,4.13.5,5.57S174.82,175.72,175.88,175.77Z" transform="translate(-110.62 -37.13)"/><path class="cls-44" d="M183.14,209.52a33.66,33.66,0,0,0-4.8,13.05c-.73,6.86-.64,5.8-.46,7.7a18.71,18.71,0,0,0,2.19,7.14c1.23,1.9,2.18,2.23,2.18,2.23s-6.24-.35-6.36-10.71,1.39-12.38,1.39-12.38a40.12,40.12,0,0,1,8.59-14.63s9-7.74,13.89-3.11c0,0-5.14-3.44-13.16,5.44Z" transform="translate(-110.62 -37.13)"/><path class="cls-47" d="M169.17,189.37s.74.22.15,1.52a13.58,13.58,0,0,0-1.79,4.65v.6s-2.42,2.38-2.31-.89a7.66,7.66,0,0,1,2.16-5.13S168.84,189,169.17,189.37Z" transform="translate(-110.62 -37.13)"/><path class="cls-46" d="M177.65,182.91s-1.52,2.85-2,3.74a3.33,3.33,0,0,0-.2,2s-2.28,2-2.4-.82a8.45,8.45,0,0,1,2.12-5.28s1.34-1.12,2.12-1.08a1.19,1.19,0,0,1,.57,1.15Z" transform="translate(-110.62 -37.13)"/><path class="cls-44" d="M183,187.92s-2.19,1.15-2.49,6.28l-.15.3s-2.57,1.41-2.19-2.16a7,7,0,0,1,2.4-5s1.53-1.12,2.25-.26A.73.73,0,0,1,183,187.92Z" transform="translate(-110.62 -37.13)"/><path class="cls-48" d="M179.25,201.45a15.58,15.58,0,0,0-2.42,6.69s-1.49,1.68-2-.67a6,6,0,0,1,.6-4.21s1.26-2.57,2.75-2.83S179.25,201.45,179.25,201.45Z" transform="translate(-110.62 -37.13)"/><path class="cls-49" d="M170.73,209a11.12,11.12,0,0,0-2.38,6.3s-1.12,1.32-2,0,0-3.62,0-3.62,1.75-4.39,3.46-3.87C169.8,207.85,171.46,208,170.73,209Z" transform="translate(-110.62 -37.13)"/><path class="cls-50" d="M166.35,203.12s-2.19,1.53-2.42,6.25c0,0-1,2.23-2,0a5.75,5.75,0,0,1,.3-4.5S164.78,200,166.35,203.12Z" transform="translate(-110.62 -37.13)"/><path class="cls-51" d="M176.13,191.82a13.25,13.25,0,0,0-6,8.29s-.78,3.12-.15,4.87c0,0-2.64.67-2.08-4.91s4.28-8.66,5.65-8.85S175.1,190.62,176.13,191.82Z" transform="translate(-110.62 -37.13)"/></g><path class="cls-13" d="M126,173.4c-17.42,32.81-22.54,77.14-2.08,87.47s43.39-13,58.91-43.73,21.06-75.95.6-86.28S142.14,143,126,173.4Z" transform="translate(-110.62 -37.13)"/><ellipse class="cls-14" cx="158.84" cy="152.31" rx="18.8" ry="9.1" transform="translate(-157.86 192.39) rotate(-64.34)"/><ellipse class="cls-15" cx="176.58" cy="166.25" rx="21.08" ry="11.65" transform="translate(-160.37 216.29) rotate(-64.34)"/><ellipse class="cls-16" cx="165.57" cy="211.72" rx="23.05" ry="13.07" transform="translate(-207.6 232.13) rotate(-64.34)"/><ellipse class="cls-17" cx="136.5" cy="235.08" rx="22.43" ry="10.34" transform="translate(-239.36 257.47) rotate(-72.51)"/><ellipse class="cls-18" cx="135.12" cy="176.05" rx="17.65" ry="7.63" transform="translate(-192.7 184.47) rotate(-64.34)"/><ellipse class="cls-19" cx="124.01" cy="213.65" rx="18.73" ry="8.58" transform="translate(-227.66 230.57) rotate(-72.51)"/><ellipse class="cls-20" cx="151.26" cy="178.48" rx="4.56" ry="2.47" transform="translate(-181.62 214.38) rotate(-67.91)"/><ellipse class="cls-18" cx="156.53" cy="183.95" rx="4.56" ry="2.47" transform="translate(-183.41 222.67) rotate(-67.91)"/><ellipse class="cls-21" cx="152.96" cy="197.73" rx="4.56" ry="2.47" transform="translate(-198.4 227.97) rotate(-67.91)"/><ellipse class="cls-22" cx="144.3" cy="205.11" rx="4.56" ry="2.47" transform="translate(-210.64 224.55) rotate(-67.91)"/><ellipse class="cls-23" cx="139.88" cy="199.38" rx="4.56" ry="2.47" transform="translate(-208.09 216.88) rotate(-67.91)"/><ellipse class="cls-24" cx="142.92" cy="186.05" rx="4.56" ry="2.47" transform="translate(-193.84 211.38) rotate(-67.91)"/><ellipse class="cls-25" cx="148.29" cy="191.33" rx="7.82" ry="4.23" transform="translate(-195.38 219.65) rotate(-67.91)"/><path class="cls-26" d="M172.88,130.83s-2.74-.6-7.32,1.49,15.35-5.5,21.45,6.69C187,139,186.58,129.14,172.88,130.83Z" transform="translate(-110.62 -37.13)"/><path class="cls-27" d="M192.82,165.64l-12.5,22,2.08,20.23S196.39,176.2,192.82,165.64Z" transform="translate(-110.62 -37.13)"/><path class="cls-28" d="M147.73,255.18s-6.53,3.27-9.66,3.42-7.59,3.12-16.51-3.42c0,0-6.55-7.59-7.44-14.58,0,0-.45,6.55,3.57,11.31a47.49,47.49,0,0,0,7.88,7.5l7.14,1,8.78-1.49Z" transform="translate(-110.62 -37.13)"/><path class="cls-13" d="M113.08,227.07v8l-1.34-2.21s0-12.2,1.34-17.26Z" transform="translate(-110.62 -37.13)"/><path class="cls-29" d="M160.24,244s-5.4,6.4-7.91,7.29l2.51-.89,8.82-7.74,3.42-5.06Z" transform="translate(-110.62 -37.13)"/><path class="cls-30" d="M130.4,195.07a6.55,6.55,0,0,1,4.14,3.4,4.73,4.73,0,0,1,.17.48s1.06-.55-1-3.12S130.4,195.07,130.4,195.07Z" transform="translate(-110.62 -37.13)"/><path class="cls-31" d="M190.4,150.2s1.6-.89-1.6-3.53-5.65-1.56-5.65-1.56l1.26.63S189.77,148.6,190.4,150.2Z" transform="translate(-110.62 -37.13)"/><path class="cls-32" d="M143.13,149.14s-3.24,3.35-3.9,5c0,0,6-7,6.53-7.36s4.24-4.41,6.58-6.25S162.49,134,162.49,134a7.14,7.14,0,0,0-2.29.8c-1.39.71-10.38,6.62-11.44,8.35l-3.24,3.12Z" transform="translate(-110.62 -37.13)"/><path class="cls-33" d="M142.92,160.86s-3.58-1-9.83,8.09c0,0-3.4,5.51-4.24,9.53s-2,8.08-1.12,10.94,1.39,2.57,1.39,2.57-3,.28-3.35-4a36.15,36.15,0,0,1,0-6.81s1.67-6.69,3.51-9.32a35.71,35.71,0,0,1,3.29-5.63,19,19,0,0,1,4.41-4.41S140.37,159.13,142.92,160.86Z" transform="translate(-110.62 -37.13)"/><path class="cls-34" d="M117.64,229.75s-3-6.14,1.28-18c0,0,3.46-8.53,6.25-10.71,0,0,3.63-4.24,6-3.85,0,0-1.66-2.74-7.13,1.78s-8.93,17.24-8.93,17.24-1.39,8.2,0,10.82a5.43,5.43,0,0,0,3.79,4.3A6,6,0,0,1,117.64,229.75Z" transform="translate(-110.62 -37.13)"/><path class="cls-35" d="M131.7,226.79s-6,12.66-4.46,21.7c0,0,.89,6.25,5,7.25a4.63,4.63,0,0,1-5.69-3.24,27.37,27.37,0,0,1-1.45-6.75s-.61-7.47.95-10.38c0,0,.84-5.47,3.29-8.59,0,0,2-5,3.57-6.14,0,0,2.73-4,4.8-4.41,0,0,3.63-3.11,7.08-.63l1.56,1.52L144.64,216s-6-.28-7.64,3.35C137,219.32,131.64,225.34,131.7,226.79Z" transform="translate(-110.62 -37.13)"/><path class="cls-36" d="M114.11,232.87s3.58,4.83,10.58-1.56c0,0-4.09,13,0,21.94,0,0,2.83,7.74,9.67,4.54l-2.53,1.12s-13.57.6-17.72-20.68Z" transform="translate(-110.62 -37.13)"/><path class="cls-37" d="M151.26,229.45s.64,9.85,12.1,5.82-2.38,6.08-2.38,6.08-9.07,10.26-16.51,12.5S134.28,257,134.28,257,152.84,248.19,151.26,229.45Z" transform="translate(-110.62 -37.13)"/><path class="cls-38" d="M147.3,168.31s3.08,6.77,11.54.3l4.08-4.17,2.65-3.57" transform="translate(-110.62 -37.13)"/><path class="cls-39" d="M141.35,157.75s-4,1-4.17,2.53c0,0,3-2,4.69-1.27,0,0,2.42.33,3,1.86a7.65,7.65,0,0,0,1,1.93,9.53,9.53,0,0,0-.19-1.67C145.59,160.65,143.69,157.86,141.35,157.75Z" transform="translate(-110.62 -37.13)"/><path class="cls-40" d="M144.42,212.79h-2l2.45,1s2.45,1.86,2.87,3.76,1,2.06,1,2.06a16.83,16.83,0,0,0-.73-3.12A18.89,18.89,0,0,0,144.42,212.79Z" transform="translate(-110.62 -37.13)"/><path class="cls-41" d="M134.12,212.48a26.83,26.83,0,0,1-1.06,3.57c-.39.73.17.17.17.17l1.73-6.5.33-2.48s.39-4.83,0-6.11-.11.75-.11.75v2l-.14,2.82-.45,3.6Z" transform="translate(-110.62 -37.13)"/><path class="cls-42" d="M125.28,192.6l1.56,2.12v.39h2.29l.84-.65S126.06,194.1,125.28,192.6Z" transform="translate(-110.62 -37.13)"/><path class="cls-43" d="M161.37,180.32s.73,9.32,9,7.42c0,0,7-1.92,9.2-5.19s2.62-3,2.62-3l-2.84,3.85L176.1,186l-2.34,1.17a32,32,0,0,1-4.46,1.12,11.5,11.5,0,0,1-4.24-.73c-.95-.56-3.12-3.63-3.12-3.63Z" transform="translate(-110.62 -37.13)"/><polygon class="cls-44" points="80.48 114.19 80.02 113.53 79.86 113.72 79.94 114.48 80.36 116.53 80.48 118.32 80.39 120.35 80.36 121.89 80 124.47 79.49 126.87 79.21 127.59 78.66 129.63 78.14 130.9 77.71 132.01 76.75 134.34 76.01 135.68 75.53 136.71 78.96 129.86 80.14 125.67 80.94 121.31 80.94 118.16 80.69 116.13 80.48 114.19"/><path class="cls-45" d="M186.15,148s-5.54-1.08-12.08,6.36-8,13.61-8,13.61-1.6,6.88-1.15,9,.28,4.42,1.6,6.4,1.41,1.82,1.41,1.82a8,8,0,0,1-4.65-6.43,44.43,44.43,0,0,1-.19-7.1s1.23-4.6,1.67-5.59,1.93-4.67,1.93-4.67,2.68-5.21,3.16-5.54,4.39-5,4.39-5l3-2.16,3.68-1.64S184.81,146.59,186.15,148Z" transform="translate(-110.62 -37.13)"/><path class="cls-46" d="M151.67,169s-2.4-2-1.73-7.87,2.29-8.59,2.29-8.59l3.51-6.75,4.3-5.3s5.47-4.57,6.81-4.13.78,0,.78,0-1.12-1.36-3.63-.64-6,3.85-6,3.85-3.29,3.35-3.63,4.24a39.22,39.22,0,0,1-2.34,3.9l-2.24,4.91-1.39,3.85-.67,4.13.5,5.57S150.61,168.95,151.67,169Z" transform="translate(-110.62 -37.13)"/><path class="cls-44" d="M158.92,202.75a33.66,33.66,0,0,0-4.8,13.05c-.73,6.86-.64,5.8-.46,7.7a18.71,18.71,0,0,0,2.19,7.14c1.23,1.9,2.18,2.23,2.18,2.23s-6.24-.35-6.36-10.71,1.39-12.38,1.39-12.38a40.12,40.12,0,0,1,8.59-14.63s9-7.74,13.89-3.11c0,0-5.14-3.44-13.16,5.44Z" transform="translate(-110.62 -37.13)"/><path class="cls-47" d="M145,182.59s.74.22.15,1.52a13.58,13.58,0,0,0-1.79,4.65v.6s-2.42,2.38-2.31-.89a7.66,7.66,0,0,1,2.16-5.13S144.62,182.24,145,182.59Z" transform="translate(-110.62 -37.13)"/><path class="cls-46" d="M153.43,176.14s-1.52,2.85-2,3.74a3.33,3.33,0,0,0-.2,2s-2.28,2-2.4-.82a8.45,8.45,0,0,1,2.12-5.28s1.34-1.12,2.12-1.08a1.19,1.19,0,0,1,.57,1.15Z" transform="translate(-110.62 -37.13)"/><path class="cls-44" d="M158.75,181.14s-2.19,1.15-2.49,6.28l-.15.3s-2.57,1.41-2.19-2.16a7,7,0,0,1,2.4-5s1.53-1.12,2.25-.26A.73.73,0,0,1,158.75,181.14Z" transform="translate(-110.62 -37.13)"/><path class="cls-48" d="M155,194.68a15.58,15.58,0,0,0-2.42,6.69s-1.49,1.68-2-.67a6,6,0,0,1,.6-4.21s1.26-2.57,2.75-2.83S155,194.68,155,194.68Z" transform="translate(-110.62 -37.13)"/><path class="cls-49" d="M146.52,202.27a11.12,11.12,0,0,0-2.38,6.3s-1.12,1.32-2,0,0-3.62,0-3.62,1.75-4.39,3.46-3.87C145.59,201.08,147.24,201.23,146.52,202.27Z" transform="translate(-110.62 -37.13)"/><path class="cls-50" d="M142.13,196.35s-2.19,1.53-2.42,6.25c0,0-1,2.23-2,0a5.75,5.75,0,0,1,.3-4.5S140.57,193.25,142.13,196.35Z" transform="translate(-110.62 -37.13)"/><path class="cls-51" d="M151.91,185a13.25,13.25,0,0,0-6,8.29s-.78,3.12-.15,4.87c0,0-2.64.67-2.08-4.91s4.28-8.66,5.65-8.85S150.88,183.84,151.91,185Z" transform="translate(-110.62 -37.13)"/><polygon class="cls-1" points="108.5 155.81 90.37 179.3 91.9 188.12 98.68 184.3 112.15 175.66 108.5 155.81"/><polygon class="cls-52" points="170.96 0 74.69 117.4 115.44 102.49 35.65 260.28 70.38 247.21 28.54 353.81 138.15 180.75 72.99 227.49 170.29 57.24 124.4 83.31 170.96 0"/></svg>