<svg id="Layer_1" data-name="Layer 1" xmlns="http://www.w3.org/2000/svg" viewBox="0 0 272.95 330.44"><defs><style>.cls-1,.cls-37{fill:#ababab;}.cls-2{fill:#9b9b9b;}.cls-3{fill:#919292;}.cls-4{fill:#9c9c9c;}.cls-10,.cls-11,.cls-14,.cls-15,.cls-16,.cls-17,.cls-18,.cls-19,.cls-20,.cls-21,.cls-22,.cls-23,.cls-24,.cls-25,.cls-38,.cls-5{fill:none;}.cls-5{stroke:#ed1c24;}.cls-10,.cls-11,.cls-14,.cls-15,.cls-16,.cls-17,.cls-18,.cls-19,.cls-20,.cls-21,.cls-22,.cls-23,.cls-24,.cls-25,.cls-27,.cls-37,.cls-38,.cls-5{stroke-miterlimit:10;}.cls-10,.cls-5{stroke-width:0.25px;}.cls-6{fill:#d7d6d6;}.cls-7{fill:#a2a1a1;}.cls-8{fill:#6c6d6d;}.cls-9{fill:#6a6b6b;}.cls-10{stroke:#d74752;}.cls-11{stroke:#ceb0d4;}.cls-12{opacity:0.78;}.cls-13{fill:#555;}.cls-14{stroke:#cacaca;}.cls-15{stroke:#dfdfde;}.cls-16{stroke:#cecece;}.cls-17{stroke:#afafb0;}.cls-18{stroke:#d2d2d2;}.cls-19{stroke:#9e9e9e;}.cls-20{stroke:#d3d3d3;}.cls-21{stroke:#cfcecc;}.cls-22{stroke:#818182;}.cls-23{stroke:#c3c3c3;}.cls-24{stroke:#c9c9c9;}.cls-25{stroke:#cecdcd;}.cls-26{fill:#aeaeae;}.cls-27{fill:#cbcbca;stroke:#cbcbca;}.cls-28{fill:#676767;}.cls-29{fill:#929292;}.cls-30{fill:#969696;}.cls-31{fill:#828383;}.cls-32{fill:#919190;}.cls-33{fill:#323232;}.cls-34{fill:#343434;}.cls-35{fill:#1d1d1d;}.cls-36{fill:#979696;}.cls-37{stroke:#ababab;}.cls-38{stroke:#d4d4d4;}.cls-39{fill:#bababb;}.cls-40{fill:#8d8d8d;}.cls-41{fill:#464646;}.cls-42{fill:#cecdcd;}.cls-43{fill:#c0bfbf;}.cls-44{fill:#232323;}.cls-45{fill:#2c2c2c;}.cls-46{fill:#242424;}.cls-47{fill:#262626;}.cls-48{fill:#393939;}.cls-49{fill:#0f0f10;}.cls-50{fill:#353535;}.cls-51{fill:#3a3a3a;}.cls-52{fill:#ed1c24;}</style></defs><title>picturevspaperfinal</title><polyline class="cls-1" points="223.13 93.66 223.92 94.04 228.19 118.75 232.03 140.96 236.3 165.67 241.6 196.31 248.03 233.48 254.94 273.46 254.11 274.64 238.42 274.87 201.07 274.29 152.32 272.37 146.75 271.27 117.92 104.5 118.7 105.4 121.61 104.9 164.56 100.78 189.26 97.65 202.9 96.33 219.5 94.18 222.61 93.65"/><polygon class="cls-2" points="221.85 95.23 223.43 94.95 226.89 114.97 231.14 140 233.79 154.9 238.05 179.54 240.97 196.42 243.69 212.16 245.58 223.09 247.9 236.5 240.41 202.57 234.75 169.87 230 142.37 226.96 122.56 224.15 105.82 221.85 95.23"/><path class="cls-3" d="M284.43,197.51l5,24,3.5,21.12s7.67,18.39,9,9.54l-.84-8.47-8.19-47.39S290.9,194.56,284.43,197.51Z" transform="translate(-71.7 -100.71)"/><path class="cls-4" d="M200.93,206.26s-6.1-2.7-3.86,6.36,20.31,31.15,20.31,31.15l35.24,24.32L278.2,288.5l30.67,40.95s9.48,19.39,8,1.41S303.58,258,303.58,258l-10-62.1Z" transform="translate(-71.7 -100.71)"/><line class="cls-5" x1="266.8" y1="251.13" x2="238.54" y2="90.06"/><polygon class="cls-6" points="253.41 264.62 256.75 264.77 266.94 251.94 239.64 88.63 238.23 88.25 181.6 97.06 172.98 98.4 223.05 92.74 223.8 93.34 253.41 264.62"/><polygon class="cls-7" points="181.2 94.08 243.5 84.03 244.45 83.51 272.95 250.79 272.12 251.35 266.94 251.94 239.52 87.93 238.36 87.82 181.6 97.06 181.2 94.08"/><polygon class="cls-8" points="119.14 104.81 119.83 104.17 121.25 103.41 125.43 101.24 129.93 100.98 242.89 82.9 243.78 83.26 243.5 84.03 181.01 93.6 181.49 96.41 172.9 97.9 172.98 98.4 223.05 92.74 222.33 93.28 214.34 94.3 207.41 95.19 200.41 95.98 187.39 97.61 175.47 98.95 163.41 100.42 133.04 103.39 123.54 104.41 119.14 104.81"/><polygon class="cls-9" points="267.71 250.98 270.76 249.78 244.27 86.07 243.1 85.29 183.54 94.48 183.73 95.56 239.35 86.92 240.75 89.68 267.71 250.98"/><polygon class="cls-10" points="226.97 94.34 223.92 94.04 256.13 263.01 257.95 264.56 226.97 94.34"/><polygon class="cls-10" points="232.57 92.62 264.79 255.62 262.83 255.96 231.06 92.88 232.57 92.62"/><polygon class="cls-10" points="236.23 90.46 266.29 253.55 233.52 90.93 236.23 90.46"/><polyline class="cls-10" points="228.72 95.49 259.88 259.57 261.1 258.84 229.58 93.89"/><line class="cls-10" x1="258.69" y1="261.64" x2="227.67" y2="94.22"/><path class="cls-11" d="M284.56,152.32" transform="translate(-71.7 -100.71)"/><g class="cls-12"><path class="cls-13" d="M129.66,235.39c-25.51,48-33,112.94-3,128.06s63.53-19,86.25-64,30.83-111.19.87-126.32S153.3,190.88,129.66,235.39Z" transform="translate(-71.7 -100.71)"/><ellipse class="cls-14" cx="177.75" cy="204.51" rx="27.52" ry="13.33" transform="translate(-155.26 175.45) rotate(-64.34)"/><ellipse class="cls-15" cx="203.72" cy="224.92" rx="30.87" ry="17.06" transform="translate(-158.93 210.43) rotate(-64.34)"/><ellipse class="cls-16" cx="187.59" cy="291.49" rx="33.74" ry="19.14" transform="translate(-228.08 233.64) rotate(-64.34)"/><ellipse class="cls-17" cx="145.04" cy="325.69" rx="32.85" ry="15.14" transform="translate(-280.88 265.42) rotate(-72.51)"/><ellipse class="cls-18" cx="143.02" cy="239.26" rx="25.85" ry="11.16" transform="translate(-206.27 163.85) rotate(-64.34)"/><ellipse class="cls-19" cx="126.75" cy="294.32" rx="27.42" ry="12.56" transform="translate(-263.75 226.02) rotate(-72.51)"/><ellipse class="cls-20" cx="166.65" cy="242.82" rx="6.68" ry="3.62" transform="translate(-192.72 205.21) rotate(-67.91)"/><ellipse class="cls-18" cx="174.36" cy="250.83" rx="6.68" ry="3.62" transform="translate(-195.32 217.35) rotate(-67.91)"/><ellipse class="cls-21" cx="169.14" cy="271.01" rx="6.68" ry="3.62" transform="translate(-217.28 225.1) rotate(-67.91)"/><ellipse class="cls-22" cx="156.47" cy="281.81" rx="6.68" ry="3.62" transform="translate(-235.19 220.09) rotate(-67.91)"/><ellipse class="cls-23" cx="149.99" cy="273.43" rx="6.68" ry="3.62" transform="translate(-231.47 208.87) rotate(-67.91)"/><ellipse class="cls-24" cx="154.44" cy="253.91" rx="6.68" ry="3.62" transform="translate(-210.6 200.81) rotate(-67.91)"/><ellipse class="cls-25" cx="162.31" cy="261.63" rx="11.45" ry="6.2" transform="translate(-212.86 212.92) rotate(-67.91)"/><path class="cls-26" d="M198.31,173.06s-4-.87-10.71,2.18,22.48-8.06,31.41,9.8C219,185,218.36,170.59,198.31,173.06Z" transform="translate(-71.7 -100.71)"/><path class="cls-27" d="M227.49,224,209.2,256.25l3,29.62S232.72,239.48,227.49,224Z" transform="translate(-71.7 -100.71)"/><path class="cls-28" d="M161.49,355.13s-9.57,4.79-14.14,5-11.11,4.57-24.17-5c0,0-9.58-11.11-10.89-21.34,0,0-.65,9.58,5.23,16.55a69.52,69.52,0,0,0,11.54,11l10.45,1.44,12.85-2.18Z" transform="translate(-71.7 -100.71)"/><path class="cls-13" d="M110.76,314v11.72l-2-3.23s0-17.86,2-25.26Z" transform="translate(-71.7 -100.71)"/><path class="cls-29" d="M179.8,338.8s-7.91,9.37-11.58,10.67l3.67-1.31,12.92-11.33,5-7.4Z" transform="translate(-71.7 -100.71)"/><path class="cls-30" d="M136.12,267.11s4.5,1.14,6.06,5a6.93,6.93,0,0,1,.24.7s1.55-.81-1.5-4.57S136.12,267.11,136.12,267.11Z" transform="translate(-71.7 -100.71)"/><path class="cls-31" d="M224,201.42s2.34-1.31-2.34-5.17-8.28-2.29-8.28-2.29l1.85.93S223,199.08,224,201.42Z" transform="translate(-71.7 -100.71)"/><path class="cls-32" d="M154.75,199.87s-4.74,4.9-5.72,7.35c0,0,8.74-10.29,9.56-10.78s6.21-6.45,9.64-9.15,14.86-9.56,14.86-9.56a10.45,10.45,0,0,0-3.35,1.17c-2,1-15.2,9.69-16.74,12.23l-4.74,4.57Z" transform="translate(-71.7 -100.71)"/><path class="cls-33" d="M154.44,217s-5.24-1.47-14.39,11.84c0,0-5,8.07-6.21,14s-2.89,11.83-1.63,16,2,3.76,2,3.76-4.41.41-4.9-5.8a52.93,52.93,0,0,1,0-10s2.45-9.8,5.15-13.64a52.28,52.28,0,0,1,4.82-8.25,27.87,27.87,0,0,1,6.45-6.45S150.7,214.49,154.44,217Z" transform="translate(-71.7 -100.71)"/><path class="cls-34" d="M117.43,317.89s-4.33-9,1.88-26.38c0,0,5.06-12.5,9.15-15.68,0,0,5.31-6.21,8.74-5.64,0,0-2.43-4-10.44,2.61S113.67,298,113.67,298s-2,12,0,15.84a8,8,0,0,0,5.55,6.29A8.85,8.85,0,0,1,117.43,317.89Z" transform="translate(-71.7 -100.71)"/><path class="cls-35" d="M138,313.56s-8.82,18.54-6.53,31.77c0,0,1.31,9.15,7.35,10.62,0,0-6.29,1.72-8.33-4.74a40.07,40.07,0,0,1-2.12-9.88s-.9-10.94,1.39-15.19c0,0,1.23-8,4.82-12.58,0,0,2.86-7.35,5.23-9,0,0,4-5.8,7-6.45,0,0,5.31-4.55,10.37-.93l2.29,2.23L157,297.71s-8.74-.41-11.19,4.9C145.77,302.61,137.93,311.43,138,313.56Z" transform="translate(-71.7 -100.71)"/><path class="cls-36" d="M112.26,322.46s5.25,7.08,15.48-2.29c0,0-6,19.06,0,32.12,0,0,4.14,11.33,14.16,6.64l-3.7,1.63s-19.86.87-25.94-30.27Z" transform="translate(-71.7 -100.71)"/><path class="cls-37" d="M166.65,317.45s.94,14.43,17.72,8.52-3.48,8.9-3.48,8.9-13.29,15-24.17,18.29-14.92,4.57-14.92,4.57S169,344.89,166.65,317.45Z" transform="translate(-71.7 -100.71)"/><path class="cls-38" d="M160.85,227.94s4.51,9.91,16.9.44l6-6.1,3.88-5.23" transform="translate(-71.7 -100.71)"/><path class="cls-39" d="M152.14,212.48s-5.83,1.4-6.1,3.71c0,0,4.46-2.94,6.86-1.85,0,0,3.54.49,4.46,2.72a11.2,11.2,0,0,0,1.47,2.83,14,14,0,0,0-.27-2.45C158.34,216.72,155.57,212.64,152.14,212.48Z" transform="translate(-71.7 -100.71)"/><path class="cls-40" d="M156.63,293.06h-2.94l3.59,1.52s3.59,2.73,4.2,5.5,1.51,3,1.51,3a24.64,24.64,0,0,0-1.06-4.57C161.45,297.71,158,293.79,156.63,293.06Z" transform="translate(-71.7 -100.71)"/><path class="cls-41" d="M141.56,292.61a39.29,39.29,0,0,1-1.55,5.23c-.57,1.06.25.25.25.25l2.53-9.51.49-3.63s.57-7.06,0-8.94-.16,1.1-.16,1.1V280l-.2,4.12-.65,5.27Z" transform="translate(-71.7 -100.71)"/><path class="cls-42" d="M128.62,263.49l2.29,3.1v.57h3.35l1.23-1S129.76,265.7,128.62,263.49Z" transform="translate(-71.7 -100.71)"/><path class="cls-43" d="M181.46,245.53s1.06,13.64,13.23,10.86c0,0,10.18-2.81,13.48-7.6s3.84-4.33,3.84-4.33l-4.17,5.64L203,253.86l-3.43,1.72s-5.23,1.63-6.53,1.63-4.82-.25-6.21-1.06-4.57-5.31-4.57-5.31Z" transform="translate(-71.7 -100.71)"/><polygon class="cls-44" points="153.29 102.35 152.62 101.39 152.37 101.65 152.5 102.78 153.11 105.78 153.29 108.39 153.15 111.37 153.11 113.62 152.58 117.4 151.84 120.91 151.44 121.97 150.62 124.95 149.86 126.81 149.23 128.44 147.82 131.85 146.74 133.81 146.04 135.32 151.07 125.3 152.78 119.15 153.97 112.78 153.97 108.17 153.6 105.19 153.29 102.35"/><path class="cls-45" d="M217.74,198.26s-8.11-1.58-17.69,9.31-11.71,19.93-11.71,19.93-2.34,10.07-1.69,13.23.41,6.47,2.34,9.37,2.07,2.67,2.07,2.67-6.21-2.56-6.81-9.42a65.05,65.05,0,0,1-.27-10.4s1.8-6.73,2.45-8.19,2.83-6.84,2.83-6.84,3.92-7.62,4.63-8.11,6.42-7.3,6.42-7.3l4.46-3.16,5.39-2.4S215.77,196.14,217.74,198.26Z" transform="translate(-71.7 -100.71)"/><path class="cls-46" d="M167.25,228.95s-3.51-2.94-2.53-11.52,3.35-12.58,3.35-12.58l5.15-9.88,6.29-7.76s8-6.7,10-6,1.14,0,1.14,0-1.63-2-5.31-.94-8.74,5.64-8.74,5.64-4.82,4.9-5.31,6.21a57.42,57.42,0,0,1-3.43,5.72l-3.28,7.19-2,5.64-1,6,.74,8.15S165.69,228.86,167.25,228.95Z" transform="translate(-71.7 -100.71)"/><path class="cls-44" d="M177.86,278.36s-6,9.07-7,19.11-.93,8.49-.67,11.27,1.4,7.68,3.2,10.45,3.19,3.27,3.19,3.27-9.13-.51-9.31-15.68,2-18.13,2-18.13a58.74,58.74,0,0,1,12.58-21.41S195,255.9,202.2,262.68c0,0-7.53-5-19.27,8Z" transform="translate(-71.7 -100.71)"/><path class="cls-47" d="M157.42,248.85s1.09.32.22,2.23-2,3.16-2.61,6.81v.87s-3.54,3.48-3.38-1.31a11.22,11.22,0,0,1,3.16-7.51S156.93,248.33,157.42,248.85Z" transform="translate(-71.7 -100.71)"/><path class="cls-46" d="M169.83,239.4s-2.23,4.17-2.89,5.48a4.88,4.88,0,0,0-.3,2.89s-3.33,2.94-3.51-1.2,3.1-7.73,3.1-7.73,2-1.63,3.1-1.58a1.74,1.74,0,0,1,.83,1.69Z" transform="translate(-71.7 -100.71)"/><path class="cls-44" d="M177.62,246.72s-3.21,1.69-3.65,9.2l-.22.44s-3.76,2.07-3.21-3.16,3.51-7.3,3.51-7.3,2.24-1.65,3.29-.38A1.06,1.06,0,0,1,177.62,246.72Z" transform="translate(-71.7 -100.71)"/><path class="cls-48" d="M172.17,266.54s-3.21,4.74-3.54,9.8c0,0-2.18,2.46-3-1a8.75,8.75,0,0,1,.87-6.16s1.85-3.76,4-4.14S172.17,266.54,172.17,266.54Z" transform="translate(-71.7 -100.71)"/><path class="cls-49" d="M159.71,277.65s-3.48,4.18-3.48,9.22c0,0-1.63,1.93-2.94,0s0-5.3,0-5.3,2.56-6.42,5.06-5.66C158.34,275.91,160.76,276.13,159.71,277.65Z" transform="translate(-71.7 -100.71)"/><path class="cls-50" d="M153.28,269s-3.21,2.24-3.54,9.16c0,0-1.52,3.27-2.89,0a8.42,8.42,0,0,1,.44-6.59S151,264.45,153.28,269Z" transform="translate(-71.7 -100.71)"/><path class="cls-51" d="M167.6,252.44a19.39,19.39,0,0,0-8.77,12.14s-1.14,4.57-.22,7.13c0,0-3.87,1-3-7.19s6.26-12.69,8.28-13S166.09,250.68,167.6,252.44Z" transform="translate(-71.7 -100.71)"/></g><path class="cls-13" d="M94.21,225.47c-25.51,48-33,112.94-3,128.06s63.53-19,86.25-64,30.83-111.19.87-126.32S117.84,181,94.21,225.47Z" transform="translate(-71.7 -100.71)"/><ellipse class="cls-14" cx="142.29" cy="194.59" rx="27.52" ry="13.33" transform="translate(-166.42 137.87) rotate(-64.34)"/><ellipse class="cls-15" cx="168.27" cy="215" rx="30.87" ry="17.06" transform="translate(-170.1 172.85) rotate(-64.34)"/><ellipse class="cls-16" cx="152.14" cy="281.58" rx="33.74" ry="19.14" transform="translate(-239.25 196.06) rotate(-64.34)"/><ellipse class="cls-17" cx="109.59" cy="315.78" rx="32.85" ry="15.14" transform="translate(-296.22 224.66) rotate(-72.51)"/><ellipse class="cls-18" cx="107.56" cy="229.35" rx="25.85" ry="11.16" transform="translate(-217.44 126.27) rotate(-64.34)"/><ellipse class="cls-19" cx="91.29" cy="284.4" rx="27.42" ry="12.56" transform="translate(-279.1 185.27) rotate(-72.51)"/><ellipse class="cls-20" cx="131.19" cy="232.91" rx="6.68" ry="3.62" transform="translate(-205.65 166.17) rotate(-67.91)"/><ellipse class="cls-18" cx="138.9" cy="240.91" rx="6.68" ry="3.62" transform="translate(-208.26 178.31) rotate(-67.91)"/><ellipse class="cls-21" cx="133.68" cy="261.09" rx="6.68" ry="3.62" transform="translate(-230.22 186.06) rotate(-67.91)"/><ellipse class="cls-22" cx="121.01" cy="271.89" rx="6.68" ry="3.62" transform="translate(-248.13 181.06) rotate(-67.91)"/><ellipse class="cls-23" cx="114.54" cy="263.51" rx="6.68" ry="3.62" transform="translate(-244.4 169.83) rotate(-67.91)"/><ellipse class="cls-24" cx="118.99" cy="243.99" rx="6.68" ry="3.62" transform="translate(-223.54 161.77) rotate(-67.91)"/><ellipse class="cls-25" cx="126.85" cy="251.72" rx="11.45" ry="6.2" transform="translate(-225.79 173.88) rotate(-67.91)"/><path class="cls-26" d="M162.85,163.14s-4-.87-10.71,2.18,22.48-8.06,31.41,9.8C183.54,175.12,182.9,160.67,162.85,163.14Z" transform="translate(-71.7 -100.71)"/><path class="cls-27" d="M192,214.1l-18.29,32.23,3,29.62S197.26,229.57,192,214.1Z" transform="translate(-71.7 -100.71)"/><path class="cls-28" d="M126,345.21s-9.57,4.79-14.14,5-11.11,4.57-24.17-5c0,0-9.58-11.11-10.89-21.34,0,0-.65,9.58,5.23,16.55a69.52,69.52,0,0,0,11.54,11L104,352.84l12.85-2.18Z" transform="translate(-71.7 -100.71)"/><path class="cls-13" d="M75.3,304.05v11.72l-2-3.23s0-17.86,2-25.26Z" transform="translate(-71.7 -100.71)"/><path class="cls-29" d="M144.34,328.88s-7.91,9.37-11.58,10.67l3.67-1.31,12.92-11.33,5-7.4Z" transform="translate(-71.7 -100.71)"/><path class="cls-30" d="M100.66,257.2s4.5,1.14,6.06,5a6.93,6.93,0,0,1,.24.7s1.55-.81-1.5-4.57S100.66,257.2,100.66,257.2Z" transform="translate(-71.7 -100.71)"/><path class="cls-31" d="M188.5,191.51s2.34-1.31-2.34-5.17-8.28-2.29-8.28-2.29l1.85.93S187.57,189.17,188.5,191.51Z" transform="translate(-71.7 -100.71)"/><path class="cls-32" d="M119.29,190s-4.74,4.9-5.72,7.35c0,0,8.74-10.29,9.56-10.78s6.21-6.45,9.64-9.15,14.86-9.56,14.86-9.56a10.45,10.45,0,0,0-3.35,1.17c-2,1-15.2,9.69-16.74,12.23l-4.74,4.57Z" transform="translate(-71.7 -100.71)"/><path class="cls-33" d="M119,207.11s-5.24-1.47-14.39,11.84c0,0-5,8.07-6.21,14s-2.89,11.83-1.63,16,2,3.76,2,3.76-4.41.41-4.9-5.8a52.93,52.93,0,0,1,0-10s2.45-9.8,5.15-13.64a52.28,52.28,0,0,1,4.82-8.25,27.87,27.87,0,0,1,6.45-6.45S115.25,204.57,119,207.11Z" transform="translate(-71.7 -100.71)"/><path class="cls-34" d="M82,308s-4.33-9,1.88-26.38c0,0,5.06-12.5,9.15-15.68,0,0,5.31-6.21,8.74-5.64,0,0-2.43-4-10.44,2.61s-13.08,25.24-13.08,25.24-2,12,0,15.84a8,8,0,0,0,5.55,6.29A8.85,8.85,0,0,1,82,308Z" transform="translate(-71.7 -100.71)"/><path class="cls-35" d="M102.55,303.64S93.73,322.18,96,335.41c0,0,1.31,9.15,7.35,10.62,0,0-6.29,1.72-8.33-4.74a40.07,40.07,0,0,1-2.12-9.88s-.9-10.94,1.39-15.19c0,0,1.23-8,4.82-12.58,0,0,2.86-7.35,5.23-9,0,0,4-5.8,7-6.45,0,0,5.31-4.55,10.37-.93l2.29,2.23-2.53-1.72s-8.74-.41-11.19,4.9C110.31,292.7,102.47,301.52,102.55,303.64Z" transform="translate(-71.7 -100.71)"/><path class="cls-36" d="M76.8,312.55s5.25,7.08,15.48-2.29c0,0-6,19.06,0,32.12,0,0,4.14,11.33,14.16,6.64l-3.7,1.63s-19.86.87-25.94-30.27Z" transform="translate(-71.7 -100.71)"/><path class="cls-37" d="M131.19,307.54s.94,14.43,17.72,8.52-3.48,8.9-3.48,8.9-13.29,15-24.17,18.29-14.92,4.57-14.92,4.57S133.51,335,131.19,307.54Z" transform="translate(-71.7 -100.71)"/><path class="cls-38" d="M125.39,218s4.51,9.91,16.9.44l6-6.1,3.88-5.23" transform="translate(-71.7 -100.71)"/><path class="cls-39" d="M116.68,202.56s-5.83,1.4-6.1,3.71c0,0,4.46-2.94,6.86-1.85,0,0,3.54.49,4.46,2.72a11.2,11.2,0,0,0,1.47,2.83,14,14,0,0,0-.27-2.45C122.89,206.81,120.11,202.72,116.68,202.56Z" transform="translate(-71.7 -100.71)"/><path class="cls-40" d="M121.17,283.14h-2.94l3.59,1.52s3.59,2.73,4.2,5.5,1.51,3,1.51,3a24.64,24.64,0,0,0-1.06-4.57C126,287.8,122.56,283.88,121.17,283.14Z" transform="translate(-71.7 -100.71)"/><path class="cls-41" d="M106.1,282.69a39.29,39.29,0,0,1-1.55,5.23c-.57,1.06.25.25.25.25l2.53-9.51.49-3.63s.57-7.06,0-8.94-.16,1.1-.16,1.1v2.9l-.2,4.12-.65,5.27Z" transform="translate(-71.7 -100.71)"/><path class="cls-42" d="M93.16,253.58l2.29,3.1v.57h3.35l1.23-1S94.3,255.78,93.16,253.58Z" transform="translate(-71.7 -100.71)"/><path class="cls-43" d="M146,235.61s1.06,13.64,13.23,10.86c0,0,10.18-2.81,13.48-7.6s3.84-4.33,3.84-4.33l-4.17,5.64-4.82,3.76-3.43,1.72s-5.23,1.63-6.53,1.63-4.82-.25-6.21-1.06-4.57-5.31-4.57-5.31Z" transform="translate(-71.7 -100.71)"/><polygon class="cls-44" points="117.84 92.43 117.16 91.47 116.92 91.74 117.04 92.86 117.65 95.86 117.84 98.48 117.69 101.46 117.65 103.7 117.12 107.48 116.39 110.99 115.98 112.05 115.16 115.03 114.41 116.89 113.77 118.53 112.36 121.94 111.28 123.9 110.59 125.41 115.61 115.38 117.33 109.24 118.51 102.87 118.51 98.25 118.14 95.27 117.84 92.43"/><path class="cls-45" d="M182.28,188.35s-8.11-1.58-17.69,9.31-11.71,19.93-11.71,19.93-2.34,10.07-1.69,13.23.41,6.47,2.34,9.37,2.07,2.67,2.07,2.67-6.21-2.56-6.81-9.42a65.05,65.05,0,0,1-.27-10.4s1.8-6.73,2.45-8.19,2.83-6.84,2.83-6.84,3.92-7.62,4.63-8.11,6.42-7.3,6.42-7.3l4.46-3.16,5.39-2.4S180.32,186.23,182.28,188.35Z" transform="translate(-71.7 -100.71)"/><path class="cls-46" d="M131.79,219s-3.51-2.94-2.53-11.52,3.35-12.58,3.35-12.58l5.15-9.88L144,177.3s8-6.7,10-6,1.14,0,1.14,0-1.63-2-5.31-.94-8.74,5.64-8.74,5.64-4.82,4.9-5.31,6.21a57.42,57.42,0,0,1-3.43,5.72L129.09,195l-2,5.64-1,6,.74,8.15S130.24,218.95,131.79,219Z" transform="translate(-71.7 -100.71)"/><path class="cls-44" d="M142.41,268.44s-6,9.07-7,19.11-.93,8.49-.67,11.27,1.4,7.68,3.2,10.45,3.19,3.27,3.19,3.27-9.13-.51-9.31-15.68,2-18.13,2-18.13a58.74,58.74,0,0,1,12.58-21.41s13.14-11.34,20.33-4.56c0,0-7.53-5-19.27,8Z" transform="translate(-71.7 -100.71)"/><path class="cls-47" d="M122,238.93s1.09.32.22,2.23-2,3.16-2.61,6.81v.87s-3.54,3.48-3.38-1.31a11.22,11.22,0,0,1,3.16-7.51S121.48,238.42,122,238.93Z" transform="translate(-71.7 -100.71)"/><path class="cls-46" d="M134.38,229.48s-2.23,4.17-2.89,5.48a4.88,4.88,0,0,0-.3,2.89s-3.33,2.94-3.51-1.2,3.1-7.73,3.1-7.73,2-1.63,3.1-1.58a1.74,1.74,0,0,1,.83,1.69Z" transform="translate(-71.7 -100.71)"/><path class="cls-44" d="M142.16,236.81s-3.21,1.69-3.65,9.2l-.22.44s-3.76,2.07-3.21-3.16,3.51-7.3,3.51-7.3,2.24-1.65,3.29-.38A1.06,1.06,0,0,1,142.16,236.81Z" transform="translate(-71.7 -100.71)"/><path class="cls-48" d="M136.72,256.63s-3.21,4.74-3.54,9.8c0,0-2.18,2.46-3-1a8.75,8.75,0,0,1,.87-6.16s1.85-3.76,4-4.14S136.72,256.63,136.72,256.63Z" transform="translate(-71.7 -100.71)"/><path class="cls-49" d="M124.25,267.73s-3.48,4.18-3.48,9.22c0,0-1.63,1.93-2.94,0s0-5.3,0-5.3,2.56-6.42,5.06-5.66C122.89,266,125.31,266.22,124.25,267.73Z" transform="translate(-71.7 -100.71)"/><path class="cls-50" d="M117.82,259.07s-3.21,2.24-3.54,9.16c0,0-1.52,3.27-2.89,0a8.42,8.42,0,0,1,.44-6.59S115.54,254.54,117.82,259.07Z" transform="translate(-71.7 -100.71)"/><path class="cls-51" d="M132.14,242.53a19.39,19.39,0,0,0-8.77,12.14s-1.14,4.57-.22,7.13c0,0-3.87,1-3-7.19s6.26-12.69,8.28-13S130.64,240.76,132.14,242.53Z" transform="translate(-71.7 -100.71)"/><polygon class="cls-52" points="242.54 0 130.8 102.8 173.24 93.73 72.18 238.82 108.4 230.73 52.07 330.44 184.79 174.39 113.74 211.57 233.88 56.58 184.79 75.99 242.54 0"/><polygon class="cls-1" points="158.85 153.37 132.31 187.76 134.55 200.68 144.48 195.09 164.2 182.44 158.85 153.37"/></svg>