<?xml version="1.0" encoding="utf-8"?>
<!-- Generator: Adobe Illustrator 22.0.0, SVG Export Plug-In . SVG Version: 6.00 Build 0)  -->
<svg version="1.1" id="Layer_1" xmlns="http://www.w3.org/2000/svg" xmlns:xlink="http://www.w3.org/1999/xlink" x="0px" y="0px"
	 viewBox="0 0 300 300" style="enable-background:new 0 0 300 300;" xml:space="preserve">
<g>
	<path d="M150,0C67.2,0,0,67.2,0,150s67.2,150,150,150s150-67.2,150-150S232.8,0,150,0z M249.8,131.5l-36.9,36
		c-1.6,1.5-2.3,3.7-1.9,5.9l8.7,50.8c0.8,4.5-0.4,8.8-3.3,12.3c-2.9,3.5-7.1,5.4-11.6,5.4c-2.4,0-4.8-0.6-7-1.8l-45.6-24
		c-1.9-1-4.3-1-6.2,0l-45.6,24c-6.3,3.3-14.1,1.7-18.6-3.7c-2.9-3.4-4.1-7.8-3.3-12.3l8.7-50.8c0.4-2.2-0.4-4.4-1.9-5.9l-36.9-36
		c-4.1-4-5.6-10-3.8-15.5c1.8-5.5,6.5-9.5,12.2-10.3l51-7.4c2.2-0.3,4.1-1.7,5-3.7l22.8-46.2c2.6-5.2,7.8-8.4,13.6-8.4
		c5.8,0,11,3.2,13.6,8.4l22.8,46.2c1,2,2.8,3.3,5,3.7l51,7.4c5.7,0.8,10.4,4.8,12.2,10.3C255.4,121.5,253.9,127.5,249.8,131.5z"/>
</g>
</svg>
